<svg width="17" height="18" viewBox="0 0 17 18" fill="none" xmlns="http://www.w3.org/2000/svg">
<path fill-rule="evenodd" clip-rule="evenodd" d="M5.66667 2.66082e-06C6.20272 -0.000635309 6.73274 0.113456 7.22134 0.334658C7.70993 0.55586 8.14586 0.879082 8.5 1.28274C8.85415 0.879082 9.29007 0.55586 9.77866 0.334658C10.2673 0.113456 10.7973 -0.000635309 11.3333 2.66082e-06H11.8056C12.1813 2.66082e-06 12.5416 0.14972 12.8073 0.416219C13.073 0.682718 13.2222 1.04417 13.2222 1.42106V1.89474C13.2222 2.58537 13.0381 3.23242 12.7169 3.78948H15.1111C15.6121 3.78948 16.0925 3.9891 16.4468 4.34443C16.801 4.69976 17 5.1817 17 5.68421V8.52632C17 8.8589 16.9127 9.18563 16.7469 9.47366C16.5811 9.76169 16.3427 10.0009 16.0556 10.1672V15.1579C16.0556 15.9117 15.757 16.6346 15.2257 17.1676C14.6943 17.7006 13.9737 18 13.2222 18H3.77778C3.02633 18 2.30566 17.7006 1.77431 17.1676C1.24296 16.6346 0.944444 15.9117 0.944444 15.1579V10.1672C0.657304 10.0009 0.418859 9.76169 0.253075 9.47366C0.087291 9.18563 8.42297e-06 8.8589 0 8.52632V5.68421C0 5.1817 0.199007 4.69976 0.553243 4.34443C0.907478 3.9891 1.38792 3.78948 1.88889 3.78948H4.28306C3.95103 3.21363 3.77672 2.55996 3.77778 1.89474V1.42106C3.77778 1.04417 3.92703 0.682718 4.19271 0.416219C4.45839 0.14972 4.81872 2.66082e-06 5.19444 2.66082e-06H5.66667ZM14.1667 10.4211H9.44444V16.1053H13.2222L13.3327 16.0986C13.5435 16.0737 13.7398 15.9782 13.8899 15.8277C14.04 15.6771 14.1352 15.4802 14.1601 15.2687L14.1667 15.1579V10.4211ZM7.55556 10.4211H2.83333V15.1579C2.83336 15.3899 2.91829 15.6139 3.07201 15.7873C3.22573 15.9607 3.43754 16.0715 3.66728 16.0986L3.77778 16.1053H7.55556V10.4211ZM15.1111 5.68421H9.44444V8.52632H15.1111V5.68421ZM7.55556 5.68421H1.88889V8.52632H7.55556V5.68421ZM5.66667 1.89474C5.66667 2.39725 5.86567 2.87919 6.21991 3.23452C6.57415 3.58985 7.05459 3.78948 7.55556 3.78948C7.55556 3.28696 7.35655 2.80503 7.00231 2.44969C6.64808 2.09436 6.16763 1.89474 5.66667 1.89474ZM11.3333 1.89474C10.8324 1.89474 10.3519 2.09436 9.99769 2.44969C9.64345 2.80503 9.44444 3.28696 9.44444 3.78948C9.94541 3.78948 10.4259 3.58985 10.7801 3.23452C11.1343 2.87919 11.3333 2.39725 11.3333 1.89474Z" fill="#0E79BA"/>
</svg>
