<svg width="20" height="22" viewBox="0 0 20 22" fill="none" xmlns="http://www.w3.org/2000/svg">
<g clip-path="url(#clip0_1_294)">
<path d="M7.68089 6.35474C8.45083 6.35474 9.07236 6.9769 9.07236 7.74762C9.07236 8.51835 8.45083 9.1405 7.68089 9.1405C6.91095 9.1405 6.28942 8.51835 6.28942 7.74762C6.28942 6.9769 6.91095 6.35474 7.68089 6.35474ZM12.3191 12.8549C13.0891 12.8549 13.7106 13.477 13.7106 14.2477C13.7106 15.0185 13.0891 15.6406 12.3191 15.6406C11.5492 15.6406 10.9276 15.0185 10.9276 14.2477C10.9276 13.477 11.5492 12.8549 12.3191 12.8549ZM6.66976 15.6406L5.36178 14.3313L13.3302 6.35474L14.6382 7.66405L6.66976 15.6406ZM16.1688 2.50111L16.7347 6.08545L19.9907 7.74762L18.3488 10.9977L20 14.2477L16.7161 15.9099L16.1503 19.4943L12.5417 18.9278L9.97217 21.5L7.39332 18.8907L3.81262 19.485L3.23748 15.8728L0 14.2199L1.65121 10.9698L0.00927643 7.74762L3.26531 6.06688L3.83117 2.51968L7.42115 3.10469L10 0.5L12.5603 3.06754L16.1688 2.50111ZM17.5139 8.55549L15.102 7.28333L14.6382 4.59971L11.9481 4.98972L10 3.10469L8.05195 4.98972L5.36178 4.59971L4.89796 7.28333L2.48609 8.55549L3.69202 10.9977L2.48609 13.4399L4.89796 14.712L5.36178 17.3956L8.05195 17.0056L10 18.8907L11.9481 17.0056L14.6382 17.3956L15.102 14.712L17.5139 13.4399L16.308 10.9977L17.5139 8.55549Z" fill="#0E79BA"/>
</g>
<defs>
<clipPath id="clip0_1_294">
<rect width="20" height="21" fill="white" transform="translate(0 0.5)"/>
</clipPath>
</defs>
</svg>
