<svg width="27" height="28" viewBox="0 0 27 28" fill="none" xmlns="http://www.w3.org/2000/svg">
<g clip-path="url(#clip0_1_478)">
<path d="M13.5 27.5C20.9558 27.5 27 21.4558 27 14C27 6.54416 20.9558 0.5 13.5 0.5C6.04416 0.5 0 6.54416 0 14C0 21.4558 6.04416 27.5 13.5 27.5Z" fill="url(#paint0_linear_1_478)"/>
<path d="M9 14.7321L10.6076 19.0921C10.6076 19.0921 10.8086 19.5 11.0239 19.5C11.2391 19.5 14.4402 16.237 14.4402 16.237L18 9.5L9.05736 13.6067L9 14.7321Z" fill="#C8DAEA"/>
<path d="M11.3308 16.5L11.0057 20.0206C11.0057 20.0206 10.8696 21.0993 11.9282 20.0206C12.9867 18.9418 14 18.11 14 18.11" fill="#A9C6D8"/>
<path d="M9.68794 15.4946L6.30035 14.4242C6.30035 14.4242 5.8955 14.2649 6.02586 13.9037C6.0527 13.8292 6.10683 13.7658 6.26878 13.6569C7.01937 13.1495 20.1617 8.56829 20.1617 8.56829C20.1617 8.56829 20.5328 8.44702 20.7517 8.52768C20.8058 8.54394 20.8545 8.57385 20.8928 8.61435C20.9311 8.65486 20.9577 8.7045 20.9697 8.75822C20.9933 8.85309 21.0032 8.95069 20.9991 9.04821C20.998 9.13257 20.9875 9.21076 20.9795 9.33337C20.8995 10.5859 18.5041 19.9338 18.5041 19.9338C18.5041 19.9338 18.3608 20.4808 17.8474 20.4995C17.7212 20.5035 17.5955 20.4827 17.4777 20.4386C17.36 20.3944 17.2526 20.3277 17.162 20.2424C16.1544 19.4018 12.6717 17.1319 11.9021 16.6327C11.8848 16.6212 11.8702 16.6063 11.8593 16.5889C11.8484 16.5715 11.8415 16.552 11.839 16.5318C11.8282 16.4791 11.8872 16.414 11.8872 16.414C11.8872 16.414 17.9515 11.1863 18.1128 10.6375C18.1253 10.595 18.0781 10.574 18.0147 10.5926C17.612 10.7363 10.6297 15.0126 9.85913 15.4845C9.80366 15.5008 9.74503 15.5043 9.68794 15.4946Z" fill="white"/>
</g>
<defs>
<linearGradient id="paint0_linear_1_478" x1="13.5" y1="27.5" x2="13.5" y2="0.5" gradientUnits="userSpaceOnUse">
<stop stop-color="#1D93D2"/>
<stop offset="1" stop-color="#38B0E3"/>
</linearGradient>
<clipPath id="clip0_1_478">
<rect width="27" height="27" fill="white" transform="translate(0 0.5)"/>
</clipPath>
</defs>
</svg>
