<svg width="23" height="23" viewBox="0 0 23 23" fill="none" xmlns="http://www.w3.org/2000/svg">
<path d="M12.5556 19.9444H13.6987C14.2417 19.9446 14.7794 19.8377 15.2811 19.63C15.7828 19.4223 16.2387 19.1177 16.6226 18.7338C17.0066 18.3498 17.3112 17.8939 17.5189 17.3922C17.7266 16.8905 17.8335 16.3528 17.8333 15.8098V8.33333C17.8333 6.65363 17.1661 5.04272 15.9783 3.85499C14.7906 2.66726 13.1797 2 11.5 2C9.8203 2 8.20939 2.66726 7.02166 3.85499C5.83393 5.04272 5.16667 6.65363 5.16667 8.33333V15.7222M12.5556 19.9444V18.8889C12.5556 18.6089 12.4443 18.3405 12.2464 18.1425C12.0484 17.9445 11.78 17.8333 11.5 17.8333H10.4444C10.1645 17.8333 9.89601 17.9445 9.69805 18.1425C9.5001 18.3405 9.38889 18.6089 9.38889 18.8889V19.9444C9.38889 20.2244 9.5001 20.4929 9.69805 20.6908C9.89601 20.8888 10.1645 21 10.4444 21H11.5C11.78 21 12.0484 20.8888 12.2464 20.6908C12.4443 20.4929 12.5556 20.2244 12.5556 19.9444ZM5.16667 15.7222V9.38889H4.11111C3.55121 9.38889 3.01424 9.61131 2.61833 10.0072C2.22242 10.4031 2 10.9401 2 11.5V13.6111C2 14.171 2.22242 14.708 2.61833 15.1039C3.01424 15.4998 3.55121 15.7222 4.11111 15.7222H5.16667ZM17.8333 9.38889H18.8889C19.4488 9.38889 19.9858 9.61131 20.3817 10.0072C20.7776 10.4031 21 10.9401 21 11.5V13.6111C21 14.171 20.7776 14.708 20.3817 15.1039C19.9858 15.4998 19.4488 15.7222 18.8889 15.7222H17.8333V9.38889Z" stroke="#0E79BA" stroke-width="2" stroke-linecap="round" stroke-linejoin="round"/>
</svg>
