<svg width="20" height="21" viewBox="0 0 20 21" fill="none" xmlns="http://www.w3.org/2000/svg">
<g clip-path="url(#clip0_1_269)">
<path d="M13.7939 7.26172L14.8516 8.37207L14.9502 8.47461L14.8516 8.57812L9.2373 14.4736L9.19336 14.5205H8.00684L7.96289 14.4736L5.38672 11.7686L5.28809 11.665L5.38672 11.5615L6.44434 10.4512L6.55273 10.3369L6.66113 10.4512L8.60645 12.4951L13.5771 7.26172L13.6855 7.14746L13.7939 7.26172ZM4.15625 16.5967H7.25195L7.2793 16.6084L7.81543 16.8271L7.8457 16.8398L7.86914 16.8633L9.96484 19.123L12.1025 16.8779L12.125 16.8545L12.1543 16.8428L12.7197 16.6084L12.7471 16.5967H15.7695V13.3887L15.7793 13.3633L15.9883 12.8154L15.999 12.7871L16.0205 12.7646L18.2275 10.4912L16.0645 8.23438L16.0469 8.2168L16.0361 8.19434L15.7832 7.64648L15.7695 7.61719V4.3877H12.7471L12.7197 4.37598L12.1982 4.15723L12.1699 4.14551L12.1484 4.12305L9.96484 1.87402L7.86816 4.12109L7.8457 4.14551L7.81543 4.15723L7.2793 4.37598L7.25195 4.3877H4.15625V7.61328L4.14453 7.64062L3.92188 8.1875L3.91113 8.21289L3.89258 8.2334L1.78418 10.4912L3.93652 12.7656L3.95898 12.79L3.96973 12.8223L4.14844 13.3701L4.15625 13.3926V16.5967ZM17.6035 7.19531L20.1094 9.8418L20.1504 9.88477V11.1152L20.1084 11.1592L17.5586 13.8047V17.5889L17.5176 17.6318L16.7725 18.4141L16.7285 18.4609H13.1533L10.6377 21.1035L10.5928 21.1504H9.40527L9.36133 21.1016L6.91895 18.4609H3.24414L3.2002 18.417L2.41113 17.6348L2.36719 17.5908V13.8037L-0.109375 11.1572L-0.150391 11.1143V9.88574L-0.109375 9.84277L2.36719 7.19531V3.39355L2.41113 3.34961L3.2002 2.56738L3.24414 2.52344H6.91992L9.36133 -0.102539L9.40625 -0.150391H10.5928L10.6367 -0.103516L13.1533 2.52344H16.7725L16.8164 2.56934L17.5605 3.33594L17.6035 3.37891V7.19531Z" fill="#0E79BA" stroke="#0E79BA" stroke-width="0.3"/>
</g>
<defs>
<clipPath id="clip0_1_269">
<rect width="20" height="21" fill="white"/>
</clipPath>
</defs>
</svg>
