<svg width="27" height="30" viewBox="0 0 27 30" fill="none" xmlns="http://www.w3.org/2000/svg">
<path d="M24.0548 2.59679C23.3508 1.95863 20.3118 0.0536507 13.9708 0.0260569C13.9708 0.0260569 6.46208 -0.466116 2.81711 2.82758C0.788436 4.82587 0.105003 7.79747 0.0300716 11.4238C-0.0448596 15.0501 -0.433094 21.9777 6.21567 23.8204C6.21567 23.8204 6.18952 28.9634 6.1865 29.4155C6.1865 29.7315 6.23679 29.9478 6.41783 29.9924C6.54808 30.024 6.7432 29.9568 6.90916 29.7917C7.97227 28.7266 11.3759 24.6302 11.3759 24.6302C15.9426 24.9277 19.576 24.0281 19.9668 23.9007C20.8881 23.6052 25.8713 23.1783 26.7146 16.3822C27.5861 9.37684 26.3943 4.59509 24.0548 2.59679Z" fill="#7360F2"/>
<path d="M18 12C17.9023 10.096 16.9023 9.09599 15 9" stroke="white" stroke-width="0.845875" stroke-linecap="round" stroke-linejoin="round"/>
<path d="M18.9984 12C19.0297 10.3475 18.6012 8.96683 17.7129 7.858C16.8205 6.74524 15.5852 6.13252 14 6" stroke="white" stroke-width="0.845875" stroke-linecap="round" stroke-linejoin="round"/>
<path d="M21 13C20.9803 10.2176 20.2087 8.02626 18.6849 6.42596C17.1612 4.82566 15.2662 4.01701 13 4" stroke="white" stroke-width="0.845875" stroke-linecap="round" stroke-linejoin="round"/>
<path d="M15.2248 17.3435C15.2248 17.3435 15.8257 17.3942 16.1493 16.9956L16.7801 16.2021C17.0844 15.8086 17.8187 15.5576 18.5378 15.9582C19.0767 16.2655 19.5998 16.5995 20.1053 16.9591C20.5825 17.31 21.5597 18.1254 21.5628 18.1254C22.0283 18.5184 22.1358 19.0954 21.8189 19.7039C21.8189 19.7075 21.8163 19.7136 21.8163 19.7166C21.4673 20.3217 21.0241 20.8674 20.5034 21.3332C20.4973 21.3362 20.4973 21.3393 20.4917 21.3423C20.0394 21.7202 19.595 21.9351 19.1585 21.9868C19.0943 21.998 19.029 22.0021 18.9638 21.999C18.7713 22.0008 18.5798 21.9714 18.3968 21.9117L18.3826 21.891C17.7102 21.7013 16.5874 21.2267 14.7177 20.1953C13.6357 19.6055 12.6056 18.9251 11.6385 18.1614C11.1537 17.7789 10.6913 17.3688 10.2535 16.9333L10.2069 16.8866L10.1602 16.84L10.1135 16.7933C10.0978 16.7781 10.0826 16.7624 10.0669 16.7467C9.63132 16.3089 9.22123 15.8466 8.83864 15.3618C8.07502 14.3949 7.39457 13.365 6.80459 12.2834C5.7731 10.4133 5.29844 9.29162 5.10878 8.61822L5.08798 8.60402C5.02853 8.421 4.99925 8.22953 5.00127 8.03711C4.99772 7.97197 5.00163 7.90664 5.01293 7.84239C5.06736 7.40664 5.28255 6.96194 5.65849 6.50827C5.66154 6.50269 5.66458 6.50269 5.66762 6.49661C6.13331 5.976 6.67907 5.533 7.28432 5.18429C7.28736 5.18429 7.29345 5.18125 7.297 5.18125C7.90554 4.86433 8.48264 4.97183 8.87515 5.43479C8.8782 5.43783 9.69212 6.41497 10.0415 6.89213C10.4012 7.39806 10.7353 7.92168 11.0426 8.46102C11.4432 9.17955 11.1922 9.91532 10.7987 10.2186L10.005 10.8494C9.60439 11.1729 9.65713 11.7738 9.65713 11.7738C9.65713 11.7738 10.8326 16.2223 15.2248 17.3435Z" fill="white"/>
</svg>
