<svg width="28" height="28" viewBox="0 0 28 28" fill="none" xmlns="http://www.w3.org/2000/svg">
<g clip-path="url(#clip0_1_483)">
<path fill-rule="evenodd" clip-rule="evenodd" d="M23.9202 4.06881C21.2885 1.4463 17.7882 0.00133054 14.0588 0C6.37397 0 0.119658 6.22363 0.116984 13.8736C0.115647 16.3191 0.758058 18.7061 1.97804 20.8097L0 28L7.39072 26.0707C9.4269 27.1764 11.7198 27.7585 14.0528 27.7592H14.0588C21.7423 27.7592 27.9974 21.5349 28 13.8849C28.0013 10.1774 26.5527 6.69132 23.9202 4.06881ZM14.0588 25.4161H14.0541C11.9751 25.4155 9.93564 24.8592 8.15617 23.8088L7.73299 23.5587L3.34709 24.7036L4.5176 20.4478L4.24218 20.0114C3.08236 18.1753 2.46937 16.053 2.4707 13.8743C2.47338 7.51626 7.67149 2.34309 14.0635 2.34309C17.1586 2.34442 20.0678 3.54524 22.2557 5.72534C24.4437 7.90478 25.6476 10.8027 25.6463 13.8836C25.6436 20.2423 20.4455 25.4161 14.0588 25.4161Z" fill="#25D366"/>
<path d="M14.0588 25.4161H14.0541C11.9751 25.4155 9.93564 24.8592 8.15617 23.8088L7.73299 23.5587L3.34709 24.7036L4.5176 20.4478L4.24218 20.0114C3.08236 18.1753 2.46937 16.053 2.4707 13.8743C2.47338 7.51626 7.67149 2.34309 14.0635 2.34309C17.1586 2.34442 20.0678 3.54524 22.2557 5.72534C24.4437 7.90478 25.6476 10.8027 25.6463 13.8836C25.6436 20.2423 20.4455 25.4161 14.0588 25.4161Z" fill="#25D366"/>
<path d="M17.9364 15.133C18.2524 15.248 19.9459 16.0811 20.2903 16.2536L20.2896 16.2549C20.634 16.4274 20.8641 16.5141 20.95 16.6575C21.0359 16.801 21.0359 17.4912 20.749 18.2958C20.4621 19.1003 19.0859 19.8349 18.4242 19.934C17.8306 20.0226 17.0798 20.0596 16.2548 19.7972C15.7544 19.6385 15.1126 19.4263 14.2909 19.0713C10.8358 17.5785 8.57916 14.0991 8.40665 13.869L8.40452 13.8662C8.22427 13.6258 7 11.9932 7 10.3049C7 8.60978 7.88975 7.77611 8.20569 7.43105C8.52163 7.08594 8.89448 7 9.12452 7C9.35455 7 9.58389 7.00198 9.78485 7.0119C9.99573 7.02314 10.2799 6.9319 10.5596 7.60358C10.8471 8.2931 11.5358 9.98889 11.6218 10.1614C11.7077 10.334 11.7652 10.5349 11.6502 10.765C11.5352 10.9945 11.4784 11.1385 11.3058 11.3395C11.1333 11.5405 10.9436 11.7884 10.7889 11.9431C10.6171 12.1144 10.4373 12.3008 10.6382 12.6459C10.8391 12.991 11.5306 14.1188 12.5545 15.0325C13.8705 16.206 14.9804 16.5696 15.3247 16.7421C15.6691 16.9147 15.8701 16.8863 16.0711 16.6562C16.272 16.4268 16.9324 15.6507 17.1617 15.3056C17.3911 14.9605 17.6205 15.0179 17.9364 15.133Z" fill="white"/>
</g>
<defs>
<clipPath id="clip0_1_483">
<rect width="28" height="28" fill="white"/>
</clipPath>
</defs>
</svg>
